{
  "accessors": [
    {
      "bufferView": 2,
      "componentType": 5126,
      "count": 240,
      "max": [
        0.1960701048374176,
        4.515334606170654,
        0.637349009513855
      ],
      "min": [
        -2.2439138889312744,
        -0.008088622242212296,
        -1.21249520778656
      ],
      "type": "VEC3"
    },
    {
      "bufferView": 2,
      "byteOffset": 2880,
      "componentType": 5126,
      "count": 240,
      "max": [
        0.98981773853302,
        0.9939466714859009,
        0.9787684679031372
      ],
      "min": [
        -0.9883800148963928,
        -0.9798615574836731,
        -0.9816697835922241
      ],
      "type": "VEC3"
    },
    {
      "bufferView": 1,
      "componentType": 5126,
      "count": 240,
      "max": [
        0.0,
        0.0
      ],
      "min": [
        0.0,
        0.0
      ],
      "type": "VEC2"
    },
    {
      "bufferView": 0,
      "componentType": 5125,
      "count": 1347,
      "type": "SCALAR"
    },
    {
      "bufferView": 2,
      "byteOffset": 5760,
      "componentType": 5126,
      "count": 240,
      "max": [
        0.1960701048374176,
        4.515334606170654,
        0.637349009513855
      ],
      "min": [
        -2.2439138889312744,
        -0.008088622242212296,
        -1.21249520778656
      ],
      "type": "VEC3"
    },
    {
      "bufferView": 2,
      "byteOffset": 8640,
      "componentType": 5126,
      "count": 240,
      "max": [
        0.98981773853302,
        0.9939466714859009,
        0.9787684679031372
      ],
      "min": [
        -0.9883800148963928,
        -0.9798615574836731,
        -0.9816697835922241
      ],
      "type": "VEC3"
    },
    {
      "bufferView": 1,
      "byteOffset": 1920,
      "componentType": 5126,
      "count": 240,
      "max": [
        0.0,
        0.0
      ],
      "min": [
        0.0,
        0.0
      ],
      "type": "VEC2"
    },
    {
      "bufferView": 0,
      "byteOffset": 5388,
      "componentType": 5125,
      "count": 1347,
      "type": "SCALAR"
    },
    {
      "bufferView": 2,
      "byteOffset": 11520,
      "componentType": 5126,
      "count": 240,
      "max": [
        0.9202975630760193,
        4.3512396812438965,
        2.1351449489593506
      ],
      "min": [
        -2.8105971813201904,
        -0.012000407092273235,
        -1.1093438863754272
      ],
      "type": "VEC3"
    },
    {
      "bufferView": 2,
      "byteOffset": 14400,
      "componentType": 5126,
      "count": 240,
      "max": [
        0.9927646517753601,
        0.9907278418540955,
        0.9911540150642395
      ],
      "min": [
        -0.9872516393661499,
        -0.9944087862968445,
        -0.9485546350479126
      ],
      "type": "VEC3"
    },
    {
      "bufferView": 1,
      "byteOffset": 3840,
      "componentType": 5126,
      "count": 240,
      "max": [
        0.0,
        0.0
      ],
      "min": [
        0.0,
        0.0
      ],
      "type": "VEC2"
    },
    {
      "bufferView": 0,
      "byteOffset": 10776,
      "componentType": 5125,
      "count": 1347,
      "type": "SCALAR"
    }
  ],
  "asset": {
    "extras": {
      "author": "Incg5764 (https://sketchfab.com/incg5764)",
      "license": "CC-BY-4.0 (http://creativecommons.org/licenses/by/4.0/)",
      "source": "https://sketchfab.com/3d-models/3-pack-of-storm-lightning-8acf90c132754b6bb9ab2b60ebd9465f",
      "title": "3 Pack of Storm Lightning"
    },
    "generator": "Sketchfab-14.28.0",
    "version": "2.0"
  },
  "bufferViews": [
    {
      "buffer": 0,
      "byteLength": 16164,
      "name": "floatBufferViews",
      "target": 34963
    },
    {
      "buffer": 0,
      "byteLength": 5760,
      "byteOffset": 16164,
      "byteStride": 8,
      "name": "floatBufferViews",
      "target": 34962
    },
    {
      "buffer": 0,
      "byteLength": 17280,
      "byteOffset": 21924,
      "byteStride": 12,
      "name": "floatBufferViews",
      "target": 34962
    }
  ],
  "buffers": [
    {
      "byteLength": 39204,
      "uri": "scene.bin"
    }
  ],
  "materials": [
    {
      "doubleSided": true,
      "emissiveFactor": [
        0.6126079622337895,
        0.6421957247869707,
        1.0
      ],
      "name": "th_bolt"
    }
  ],
  "meshes": [
    {
      "name": "Object_0",
      "primitives": [
        {
          "attributes": {
            "NORMAL": 1,
            "POSITION": 0,
            "TEXCOORD_0": 2
          },
          "indices": 3,
          "material": 0,
          "mode": 4
        }
      ]
    },
    {
      "name": "Object_1",
      "primitives": [
        {
          "attributes": {
            "NORMAL": 5,
            "POSITION": 4,
            "TEXCOORD_0": 6
          },
          "indices": 7,
          "material": 0,
          "mode": 4
        }
      ]
    },
    {
      "name": "Object_2",
      "primitives": [
        {
          "attributes": {
            "NORMAL": 9,
            "POSITION": 8,
            "TEXCOORD_0": 10
          },
          "indices": 11,
          "material": 0,
          "mode": 4
        }
      ]
    }
  ],
  "nodes": [
    {
      "children": [
        1
      ],
      "matrix": [
        1.0,
        0.0,
        0.0,
        0.0,
        0.0,
        2.220446049250313e-16,
        -1.0,
        0.0,
        0.0,
        1.0,
        2.220446049250313e-16,
        0.0,
        0.0,
        0.0,
        0.0,
        1.0
      ],
      "name": "Sketchfab_model"
    },
    {
      "children": [
        2
      ],
      "name": "root"
    },
    {
      "children": [
        3,
        5,
        7
      ],
      "matrix": [
        1.0,
        0.0,
        0.0,
        0.0,
        0.0,
        2.220446049250313e-16,
        1.0,
        0.0,
        0.0,
        -1.0,
        2.220446049250313e-16,
        0.0,
        0.0,
        0.0,
        0.0,
        1.0
      ],
      "name": "GLTF_SceneRootNode"
    },
    {
      "children": [
        4
      ],
      "matrix": [
        1.2846543021279797,
        -0.5524997931570989,
        0.06602401788881541,
        0.0,
        0.5540012009846937,
        1.2855155621923746,
        -0.02200629504224617,
        0.0,
        -0.05194094419950972,
        0.04632047360868003,
        1.3982519159268396,
        0.0,
        0.0,
        0.0,
        0.0,
        1.0
      ],
      "name": "th bolt_0"
    },
    {
      "mesh": 0,
      "name": "Object_4"
    },
    {
      "children": [
        6
      ],
      "matrix": [
        -0.4105476271807871,
        -0.18403075849794337,
        -0.8930752072154379,
        -0.0,
        0.0416037561518804,
        0.9746213720741047,
        -0.2199597885306413,
        0.0,
        0.9108895505440165,
        -0.12745925240272366,
        -0.39247212090371264,
        -0.0,
        3.742126941680908,
        0.0,
        0.008097589015960693,
        1.0
      ],
      "name": "th bolt.001_1"
    },
    {
      "mesh": 1,
      "name": "Object_6"
    },
    {
      "children": [
        8
      ],
      "matrix": [
        0.3503726758991099,
        -0.221022815611349,
        -0.3768889129321616,
        0.0,
        0.17765322099542666,
        0.6736434686616759,
        -0.22989729537395928,
        0.0,
        0.38041997281834444,
        0.016972377942820683,
        0.34370202103717495,
        0.0,
        -3.989135980606079,
        0.0,
        0.0,
        1.0
      ],
      "name": "th bolt.002_2"
    },
    {
      "mesh": 2,
      "name": "Object_8"
    }
  ],
  "scene": 0,
  "scenes": [
    {
      "name": "Sketchfab_Scene",
      "nodes": [
        0
      ]
    }
  ]
}
